<?xml version="1.0" encoding="utf-8"?>
<!-- Generator: Adobe Illustrator 27.5.0, SVG Export Plug-In . SVG Version: 6.00 Build 0)  -->
<svg version="1.1" id="Outline"
	xmlns="http://www.w3.org/2000/svg"
	xmlns:xlink="http://www.w3.org/1999/xlink" x="0px" y="0px" viewBox="0 0 32 32" enable-background="new 0 0 32 32" xml:space="preserve">
	<g>
		<path d="M18,4.25c-0.41406,0-0.75,0.33594-0.75,0.75v10c0,0.25635,0.13086,0.49463,0.34717,0.63232
		c0,0,8.41827,5.36298,8.43018,5.37061c0.32849,0.2099,0.80841,0.12195,1.0332-0.22656C28.16553,19.06348,28.75,17.06641,28.75,15
		C28.75,9.07227,23.92773,4.25,18,4.25z M26.17822,19.32031L18.75,14.58838V5.78027c4.75098,0.38281,8.5,4.37158,8.5,9.21973
		C27.25,16.52393,26.88135,18.00293,26.17822,19.32031z"/>
		<path d="M22.83301,21.7373L14.75,16.58838V7c0-0.41406-0.33594-0.75-0.75-0.75c-4.4165,0-8.44727,2.76953-10.0293,6.88916
		C3.49219,14.37451,3.25,15.67334,3.25,17c0,1.68066,0.37695,3.28125,1.12012,4.75684
		c0.18604,0.36914,0.63672,0.52051,1.00732,0.33301c0.37012-0.18652,0.51855-0.6377,0.33252-1.00684
		C5.18445,20.0401,4.88544,18.9198,4.79236,17.75H13.25v8.45667c-1.17114-0.09521-2.31512-0.39899-3.34277-0.91663
		c-0.36963-0.18652-0.8208-0.03711-1.00732,0.33301c-0.18604,0.36914-0.0376,0.82031,0.33252,1.00684
		C10.6875,27.3623,12.33594,27.75,14,27.75c3.69092,0,7.07861-1.86035,9.06299-4.97754
		C23.28516,22.42383,23.18262,21.95996,22.83301,21.7373z M13.25,7.78076V16.25H4.78436
		c0.07141-0.88013,0.26483-1.74207,0.58575-2.5708C6.6416,10.36768,9.75,8.0708,13.25,7.78076z M14.75,26.20654v-7.83936
		l6.61963,4.2168C19.77759,24.69305,17.38116,25.99493,14.75,26.20654z"/>
		<circle cx="21" cy="11" r="0.75"/>
		<circle cx="25" cy="14" r="0.75"/>
		<path d="M24.27832,9.30371c-0.3833-0.15283-0.82031,0.0332-0.97461,0.41797l-2,5c-0.15381,0.38422,0.03314,0.82074,0.41785,0.97455
		c0.35931,0.14368,0.82263-0.03754,0.97473-0.41791c0.00385-0.00964,2-5,2-5C24.8501,9.89404,24.66309,9.45752,24.27832,9.30371z"/>
		<path d="M6.39862,23.54071c-0.29291,0.29291-0.29291,0.76776,0,1.06067c0.29285,0.29291,0.76776,0.29291,1.06067,0
		c0.29285-0.29291,0.29285-0.76776,0-1.06067C7.16638,23.2478,6.69147,23.2478,6.39862,23.54071z"/>
	</g>
</svg>
